<svg width="793.225" height="793.225" viewBox="0 0 209.874 209.874" xmlns:xlink="http://www.w3.org/1999/xlink" xmlns="http://www.w3.org/2000/svg"><defs><linearGradient id="prefix__a"><stop offset="0" stop-color="#4a0065"/><stop offset="1" stop-color="#4a0065" stop-opacity="0"/></linearGradient><linearGradient id="prefix__b"><stop offset="0" stop-color="#f1f1f1" stop-opacity=".553"/><stop offset="1" stop-color="#f1f1f1" stop-opacity="0"/></linearGradient><linearGradient id="prefix__d"><stop offset="0" stop-color="#e4e4e4" stop-opacity=".255"/><stop offset="1" stop-color="#e4e4e4" stop-opacity="0"/></linearGradient><linearGradient id="prefix__f"><stop offset="0" stop-color="#ff0266"/><stop offset="1" stop-color="#7b00a8"/></linearGradient><linearGradient id="prefix__g"><stop offset="0" stop-color="#2580ff"/><stop offset="1" stop-color="#42005a"/></linearGradient><linearGradient id="prefix__c"><stop offset="0" stop-color="#ff0266"/><stop offset="1" stop-color="#4a0065"/></linearGradient><linearGradient id="prefix__e"><stop offset="0" stop-color="#0271ff"/><stop offset="1" stop-color="#4a0065"/></linearGradient><linearGradient xlink:href="#prefix__a" id="prefix__r" gradientUnits="userSpaceOnUse" x1="401.805" y1="347.882" x2="371.134" y2="316.333" gradientTransform="translate(275.504)"/><linearGradient xlink:href="#prefix__b" id="prefix__q" gradientUnits="userSpaceOnUse" x1="327.363" y1="312.678" x2="295.167" y2="346.011" gradientTransform="translate(275.504)"/><linearGradient xlink:href="#prefix__c" id="prefix__p" gradientUnits="userSpaceOnUse" x1="361.677" y1="350.283" x2="371.511" y2="371.674" gradientTransform="translate(275.504)"/><linearGradient xlink:href="#prefix__c" id="prefix__o" gradientUnits="userSpaceOnUse" x1="320.359" y1="350.283" x2="330.193" y2="371.674" gradientTransform="translate(275.504)"/><linearGradient xlink:href="#prefix__d" id="prefix__n" gradientUnits="userSpaceOnUse" x1="320.359" y1="362.881" x2="389.917" y2="372.395" gradientTransform="translate(275.504)"/><linearGradient xlink:href="#prefix__e" id="prefix__m" gradientUnits="userSpaceOnUse" gradientTransform="matrix(-.97494 -.56377 .74805 -.84188 693.986 938.446)" x1="325.276" y1="350.283" x2="352.353" y2="408.981"/><linearGradient xlink:href="#prefix__c" id="prefix__l" gradientUnits="userSpaceOnUse" gradientTransform="translate(280.421 181.14)" x1="350.722" y1="131.533" x2="387.355" y2="169.144"/><linearGradient xlink:href="#prefix__c" id="prefix__k" gradientUnits="userSpaceOnUse" gradientTransform="translate(280.421 181.14)" x1="299.967" y1="140.658" x2="315.442" y2="169.144"/><linearGradient xlink:href="#prefix__f" id="prefix__j" gradientUnits="userSpaceOnUse" x1="460.068" y1="-303.786" x2="527.164" y2="-303.786" gradientTransform="rotate(75 137.752 179.522)"/><linearGradient xlink:href="#prefix__c" id="prefix__i" gradientUnits="userSpaceOnUse" x1="280.745" y1="365.456" x2="351.916" y2="392.06" gradientTransform="scale(-1 1) rotate(75 -137.752 -179.522)"/><linearGradient xlink:href="#prefix__g" id="prefix__h" gradientUnits="userSpaceOnUse" x1="325.276" y1="350.283" x2="352.353" y2="408.981" gradientTransform="translate(275.504)"/></defs><g transform="translate(-517.238 -275.425)"><path opacity=".45" fill="none" paint-order="markers stroke fill" d="M517.238 275.425h209.874v209.874H517.238z"/><path d="M600.78 350.283a4.906 4.906 0 00-4.917 4.917v7.68c-14.387 6.418-27.07 16.002-27.07 22.53 0 10.612 25.62 37.554 53.935 45.14 27.184-7.283 52.83-34.528 52.83-45.14 0-6.996-12.957-17.514-28.543-23.869V355.2a4.906 4.906 0 00-4.917-4.917 4.906 4.906 0 00-4.917 4.917v3.03c-5.057-1.347-10.162-2.146-15.006-2.146-4.902 0-10.63 1.14-16.478 3.01V355.2a4.906 4.906 0 00-4.917-4.917z" fill="url(#prefix__h)"/><path d="M532.409 359.714a4.907 4.907 0 00-4.55 3.644 4.906 4.906 0 003.477 6.022l27.116 7.265a4.907 4.907 0 006.023-3.477 4.906 4.906 0 00-3.477-6.021l-27.117-7.267a4.944 4.944 0 00-1.472-.166zm26.512 25.552a4.942 4.942 0 00-1.472.166l-27.116 7.266a4.906 4.906 0 00-3.477 6.022 4.906 4.906 0 006.022 3.477l27.116-7.266a4.906 4.906 0 003.478-6.022 4.907 4.907 0 00-4.55-3.643zm9.942 15.33a4.905 4.905 0 00-4.388 2.462l-14.036 24.311a4.906 4.906 0 001.8 6.717 4.906 4.906 0 006.716-1.8l14.036-24.311a4.906 4.906 0 00-1.799-6.717 4.911 4.911 0 00-2.329-.661z" fill="url(#prefix__i)" paint-order="markers stroke fill"/><path d="M711.45 359.714a4.942 4.942 0 00-1.473.166l-27.116 7.267a4.906 4.906 0 00-3.477 6.021 4.907 4.907 0 006.022 3.477l27.116-7.265a4.906 4.906 0 003.477-6.022 4.907 4.907 0 00-4.55-3.644zm-26.513 25.552a4.906 4.906 0 00-4.55 3.643 4.906 4.906 0 003.477 6.022l27.116 7.266a4.906 4.906 0 006.022-3.477 4.906 4.906 0 00-3.477-6.022l-27.116-7.266a4.944 4.944 0 00-1.472-.166zm-9.942 15.33a4.911 4.911 0 00-2.329.662 4.906 4.906 0 00-1.799 6.717l14.036 24.311a4.906 4.906 0 006.717 1.8 4.906 4.906 0 001.8-6.717l-14.037-24.311a4.905 4.905 0 00-4.388-2.461z" fill="url(#prefix__j)" paint-order="markers stroke fill"/><path d="M602.867 312.678c-6.71-.146-14.86 2.627-22.479 9.12-13.543 11.542-15.618 26.386-11.37 31.831 4.25 5.446 28.82-7.093 35.086-11.513 6.266-4.42 11.116-7.11 7.43-13.675-.268.165-.52.31-.76.44l-11.397 6.578a4.906 4.906 0 01-6.716-1.8 4.906 4.906 0 011.8-6.716l18.746-10.824c-2.583-2.139-6.184-3.351-10.34-3.441z" fill="url(#prefix__k)" paint-order="markers stroke fill"/><path d="M641.483 312.678c6.71-.146 14.86 2.627 22.479 9.12 13.543 11.542 15.618 26.386 11.37 31.831-4.249 5.446-28.82-7.093-35.085-11.513-6.266-4.42-11.117-7.11-7.43-13.675.267.165.52.31.76.44l11.396 6.578a4.906 4.906 0 006.717-1.8 4.906 4.906 0 00-1.8-6.716l-18.747-10.824c2.583-2.139 6.184-3.351 10.34-3.441z" fill="url(#prefix__l)" paint-order="markers stroke fill"/><path d="M598.816 419.595c7.334 4.734 15.5 8.702 23.912 10.955 15.929-4.268 31.128-15.252 41.1-25.757 16.862-36.413-62.116-26.987-71.564-16.353-4.621 5.2-1.44 18.404 6.552 31.155z" fill="url(#prefix__m)"/><path d="M600.78 350.283a4.906 4.906 0 00-4.917 4.917v7.68c-14.387 6.418-27.07 16.002-27.07 22.53 0 6.842 10.656 20.466 25.81 31.32-11.961-9.886-19.941-20.881-19.941-26.8 0-6.528 12.684-16.112 27.07-22.53 5.151-2.365 5.2-2.204 9.835-3.786 5.848-1.87 11.576-3.01 16.477-3.01 4.844 0 9.95.798 15.006 2.145 5.656 1.257 5.295 1.159 9.834 3.312 5.652 2.304 10.946 5.159 15.414 8.191-5.257-4.644-12.876-9.283-21.283-12.71V355.2a4.906 4.906 0 00-4.917-4.917 4.906 4.906 0 00-4.917 4.917v3.03c-5.057-1.347-10.162-2.146-15.006-2.146-4.902 0-10.63 1.14-16.478 3.01V355.2a4.906 4.906 0 00-4.917-4.917z" fill="url(#prefix__n)"/><rect width="9.834" height="21.391" x="595.863" y="350.283" ry="4.917" fill="url(#prefix__o)" paint-order="markers stroke fill"/><rect width="9.834" height="21.391" x="637.181" y="350.283" ry="4.917" fill="url(#prefix__p)" paint-order="markers stroke fill"/><path d="M602.867 312.678c-6.71-.146-14.86 2.627-22.479 9.12-13.543 11.542-15.618 26.386-11.37 31.831.567.727 1.505 1.125 2.704 1.273-3.232-6.155-.618-19.886 12.085-30.713 7.618-6.493 15.769-9.266 22.479-9.12 2.406.052 4.617.491 6.56 1.258l.361-.208c-2.583-2.139-6.184-3.351-10.34-3.441zm8.666 15.763c-.267.165-.519.31-.76.44l-11.396 6.578a4.894 4.894 0 01-3.298.59v.001c3.981 5.988 12.451-1.51 16.706-3.966-.092-1.081-.485-2.277-1.252-3.643z" fill="url(#prefix__q)" paint-order="markers stroke fill"/><path d="M641.483 312.678c6.71-.146 14.86 2.627 22.479 9.12 13.543 11.542 15.618 26.386 11.37 31.831-.567.727-1.504 1.125-2.703 1.273 3.231-6.155.618-19.886-12.086-30.713-7.618-6.493-15.768-9.266-22.479-9.12-2.406.052-4.617.491-6.56 1.258l-.36-.208c2.582-2.139 6.183-3.351 10.34-3.441zm-8.666 15.763c.267.165.52.31.76.44l11.396 6.578c1.04.601 2.205.78 3.298.59v.001c-3.981 5.988-12.45-1.51-16.706-3.966.093-1.081.485-2.277 1.252-3.643z" fill="url(#prefix__r)" paint-order="markers stroke fill"/><ellipse cx="640.199" cy="353.322" rx="1.528" ry="1.617" opacity=".45" fill="#fff" paint-order="markers stroke fill"/><ellipse cx="598.904" cy="353.322" rx="1.528" ry="1.617" opacity=".45" fill="#fff" paint-order="markers stroke fill"/></g></svg>